<mxfile host="app.diagrams.net" modified="2021-11-28T02:30:00.959Z" agent="5.0 (Windows NT 10.0; Win64; x64) AppleWebKit/537.36 (KHTML, like Gecko) Chrome/96.0.4664.45 Safari/537.36" etag="SQ4GoX25rSvfQ3KXZuj2" version="15.8.3" type="github">
  <diagram id="iY5-pHewiRnftGyiLozi" name="Page-1">
    <mxGraphModel dx="1662" dy="705" grid="1" gridSize="10" guides="1" tooltips="1" connect="1" arrows="1" fold="1" page="1" pageScale="1" pageWidth="850" pageHeight="1100" math="0" shadow="0">
      <root>
        <mxCell id="0" />
        <mxCell id="1" parent="0" />
        <mxCell id="njqI8tUHYhX_ZmFeckEF-1" value="" style="swimlane;startSize=0;" vertex="1" parent="1">
          <mxGeometry x="370" y="170" width="410" height="400" as="geometry" />
        </mxCell>
        <mxCell id="njqI8tUHYhX_ZmFeckEF-3" value="User TimeLine" style="text;html=1;align=center;verticalAlign=middle;resizable=0;points=[];autosize=1;strokeColor=none;fillColor=none;" vertex="1" parent="njqI8tUHYhX_ZmFeckEF-1">
          <mxGeometry x="160" y="10" width="90" height="20" as="geometry" />
        </mxCell>
        <mxCell id="njqI8tUHYhX_ZmFeckEF-5" value="Afficher les tweets&amp;nbsp; &amp;nbsp;d&#39;un comple&amp;nbsp;" style="ellipse;whiteSpace=wrap;html=1;" vertex="1" parent="njqI8tUHYhX_ZmFeckEF-1">
          <mxGeometry x="20" y="50" width="130" height="90" as="geometry" />
        </mxCell>
        <mxCell id="njqI8tUHYhX_ZmFeckEF-6" value="Afficher les plus recent tweets" style="ellipse;whiteSpace=wrap;html=1;" vertex="1" parent="njqI8tUHYhX_ZmFeckEF-1">
          <mxGeometry x="280" y="30" width="120" height="80" as="geometry" />
        </mxCell>
        <mxCell id="njqI8tUHYhX_ZmFeckEF-8" value="&amp;lt;&amp;lt;include&amp;gt;&amp;gt;" style="endArrow=none;dashed=1;html=1;rounded=0;entryX=0;entryY=0.5;entryDx=0;entryDy=0;exitX=1;exitY=0.5;exitDx=0;exitDy=0;" edge="1" parent="njqI8tUHYhX_ZmFeckEF-1" source="njqI8tUHYhX_ZmFeckEF-5" target="njqI8tUHYhX_ZmFeckEF-6">
          <mxGeometry width="50" height="50" relative="1" as="geometry">
            <mxPoint x="190" y="170" as="sourcePoint" />
            <mxPoint x="240" y="120" as="targetPoint" />
          </mxGeometry>
        </mxCell>
        <mxCell id="njqI8tUHYhX_ZmFeckEF-9" value="Afficher les détails d&#39;un tweet&amp;nbsp;" style="ellipse;whiteSpace=wrap;html=1;" vertex="1" parent="njqI8tUHYhX_ZmFeckEF-1">
          <mxGeometry x="55" y="230" width="120" height="80" as="geometry" />
        </mxCell>
        <mxCell id="njqI8tUHYhX_ZmFeckEF-10" style="edgeStyle=orthogonalEdgeStyle;rounded=0;orthogonalLoop=1;jettySize=auto;html=1;entryX=0;entryY=0.5;entryDx=0;entryDy=0;curved=1;" edge="1" parent="1" source="njqI8tUHYhX_ZmFeckEF-4" target="njqI8tUHYhX_ZmFeckEF-9">
          <mxGeometry relative="1" as="geometry" />
        </mxCell>
        <mxCell id="njqI8tUHYhX_ZmFeckEF-11" style="edgeStyle=orthogonalEdgeStyle;rounded=0;orthogonalLoop=1;jettySize=auto;html=1;curved=1;" edge="1" parent="1" source="njqI8tUHYhX_ZmFeckEF-4" target="njqI8tUHYhX_ZmFeckEF-5">
          <mxGeometry relative="1" as="geometry" />
        </mxCell>
        <mxCell id="njqI8tUHYhX_ZmFeckEF-4" value="Actor" style="shape=umlActor;verticalLabelPosition=bottom;verticalAlign=top;html=1;outlineConnect=0;" vertex="1" parent="1">
          <mxGeometry x="270" y="340" width="30" height="60" as="geometry" />
        </mxCell>
        <mxCell id="njqI8tUHYhX_ZmFeckEF-16" style="edgeStyle=orthogonalEdgeStyle;curved=1;rounded=0;orthogonalLoop=1;jettySize=auto;html=1;" edge="1" parent="1" source="njqI8tUHYhX_ZmFeckEF-12" target="njqI8tUHYhX_ZmFeckEF-13">
          <mxGeometry relative="1" as="geometry" />
        </mxCell>
        <mxCell id="njqI8tUHYhX_ZmFeckEF-12" value="" style="ellipse;html=1;shape=endState;fillColor=#000000;strokeColor=#ff0000;" vertex="1" parent="1">
          <mxGeometry x="540" y="660" width="30" height="30" as="geometry" />
        </mxCell>
        <mxCell id="njqI8tUHYhX_ZmFeckEF-13" value="Vérifier la session utilisateur" style="rounded=1;whiteSpace=wrap;html=1;arcSize=40;fontColor=#000000;fillColor=#ffffc0;strokeColor=#ff0000;" vertex="1" parent="1">
          <mxGeometry x="495" y="730" width="120" height="40" as="geometry" />
        </mxCell>
        <mxCell id="njqI8tUHYhX_ZmFeckEF-14" value="" style="edgeStyle=orthogonalEdgeStyle;html=1;verticalAlign=bottom;endArrow=open;endSize=8;strokeColor=#ff0000;rounded=0;curved=1;" edge="1" source="njqI8tUHYhX_ZmFeckEF-13" parent="1" target="njqI8tUHYhX_ZmFeckEF-17">
          <mxGeometry relative="1" as="geometry">
            <mxPoint x="555" y="850" as="targetPoint" />
          </mxGeometry>
        </mxCell>
        <mxCell id="njqI8tUHYhX_ZmFeckEF-17" value="Condition" style="rhombus;whiteSpace=wrap;html=1;fillColor=#ffffc0;strokeColor=#ff0000;" vertex="1" parent="1">
          <mxGeometry x="515" y="830" width="80" height="40" as="geometry" />
        </mxCell>
        <mxCell id="njqI8tUHYhX_ZmFeckEF-18" value="no" style="edgeStyle=orthogonalEdgeStyle;html=1;align=left;verticalAlign=bottom;endArrow=open;endSize=8;strokeColor=#ff0000;rounded=0;entryX=1;entryY=0.5;entryDx=0;entryDy=0;" edge="1" source="njqI8tUHYhX_ZmFeckEF-17" parent="1" target="njqI8tUHYhX_ZmFeckEF-26">
          <mxGeometry x="-1" relative="1" as="geometry">
            <mxPoint x="695" y="850" as="targetPoint" />
            <Array as="points">
              <mxPoint x="680" y="850" />
              <mxPoint x="680" y="1170" />
            </Array>
          </mxGeometry>
        </mxCell>
        <mxCell id="njqI8tUHYhX_ZmFeckEF-19" value="[valid user session]" style="html=1;align=left;verticalAlign=top;endArrow=open;endSize=8;strokeColor=#ff0000;rounded=0;" edge="1" source="njqI8tUHYhX_ZmFeckEF-17" parent="1" target="njqI8tUHYhX_ZmFeckEF-20">
          <mxGeometry x="-1" relative="1" as="geometry">
            <mxPoint x="555" y="930" as="targetPoint" />
          </mxGeometry>
        </mxCell>
        <mxCell id="njqI8tUHYhX_ZmFeckEF-20" value="Affichage des tweet du compte sélectionné" style="rounded=1;whiteSpace=wrap;html=1;arcSize=40;fontColor=#000000;fillColor=#ffffc0;strokeColor=#ff0000;" vertex="1" parent="1">
          <mxGeometry x="490" y="910" width="125" height="40" as="geometry" />
        </mxCell>
        <mxCell id="njqI8tUHYhX_ZmFeckEF-21" value="" style="html=1;verticalAlign=bottom;endArrow=open;endSize=8;strokeColor=#ff0000;rounded=0;" edge="1" source="njqI8tUHYhX_ZmFeckEF-20" parent="1" target="njqI8tUHYhX_ZmFeckEF-22">
          <mxGeometry relative="1" as="geometry">
            <mxPoint x="555" y="1010" as="targetPoint" />
          </mxGeometry>
        </mxCell>
        <mxCell id="njqI8tUHYhX_ZmFeckEF-22" value="selection d&#39;un tweet" style="rounded=1;whiteSpace=wrap;html=1;arcSize=40;fontColor=#000000;fillColor=#ffffc0;strokeColor=#ff0000;" vertex="1" parent="1">
          <mxGeometry x="492.5" y="990" width="120" height="40" as="geometry" />
        </mxCell>
        <mxCell id="njqI8tUHYhX_ZmFeckEF-23" value="" style="html=1;verticalAlign=bottom;endArrow=open;endSize=8;strokeColor=#ff0000;rounded=0;" edge="1" source="njqI8tUHYhX_ZmFeckEF-22" parent="1" target="njqI8tUHYhX_ZmFeckEF-24">
          <mxGeometry relative="1" as="geometry">
            <mxPoint x="555" y="1090" as="targetPoint" />
          </mxGeometry>
        </mxCell>
        <mxCell id="njqI8tUHYhX_ZmFeckEF-24" value="Affichage des information du tweet" style="rounded=1;whiteSpace=wrap;html=1;arcSize=40;fontColor=#000000;fillColor=#ffffc0;strokeColor=#ff0000;" vertex="1" parent="1">
          <mxGeometry x="490" y="1070" width="120" height="40" as="geometry" />
        </mxCell>
        <mxCell id="njqI8tUHYhX_ZmFeckEF-25" value="" style="edgeStyle=orthogonalEdgeStyle;html=1;verticalAlign=bottom;endArrow=open;endSize=8;strokeColor=#ff0000;rounded=0;curved=1;" edge="1" source="njqI8tUHYhX_ZmFeckEF-24" parent="1" target="njqI8tUHYhX_ZmFeckEF-26">
          <mxGeometry relative="1" as="geometry">
            <mxPoint x="555" y="1170" as="targetPoint" />
          </mxGeometry>
        </mxCell>
        <mxCell id="njqI8tUHYhX_ZmFeckEF-26" value="" style="ellipse;html=1;shape=endState;fillColor=#000000;strokeColor=#ff0000;" vertex="1" parent="1">
          <mxGeometry x="535" y="1155" width="30" height="30" as="geometry" />
        </mxCell>
      </root>
    </mxGraphModel>
  </diagram>
</mxfile>
